<svg xmlns="http://www.w3.org/2000/svg" version="1.1" fill="#ffffff" viewBox="-5.0 -10.0 110.0 135.0">
 <g>
  <path d="m50 30.363c-10.828 0-19.637 8.8086-19.637 19.637s8.8086 19.637 19.637 19.637 19.637-8.8086 19.637-19.637-8.8086-19.637-19.637-19.637zm0 33.273c-7.5195 0-13.637-6.1172-13.637-13.637s6.1172-13.637 13.637-13.637 13.637 6.1172 13.637 13.637-6.1172 13.637-13.637 13.637z"/>
  <path d="m72.691 31.551 9.1289-9.1289c1.1719-1.1719 1.1719-3.0703 0-4.2422-1.1719-1.1719-3.0703-1.1719-4.2422 0l-9.1289 9.1289c-1.1719 1.1719-1.1719 3.0703 0 4.2422 0.58594 0.58594 1.3555 0.87891 2.1211 0.87891 0.76953 0 1.5352-0.29297 2.1211-0.87891z"/>
  <path d="m27.309 68.449-9.1289 9.1289c-1.1719 1.1719-1.1719 3.0703 0 4.2422 0.58594 0.58594 1.3555 0.87891 2.1211 0.87891s1.5352-0.29297 2.1211-0.87891l9.1289-9.1289c1.1719-1.1719 1.1719-3.0703 0-4.2422s-3.0703-1.1719-4.2422 0z"/>
  <path d="m29.43 32.43c0.76953 0 1.5352-0.29297 2.1211-0.87891 1.1719-1.1719 1.1719-3.0703 0-4.2422l-9.1289-9.1289c-1.1719-1.1719-3.0703-1.1719-4.2422 0-1.1719 1.1719-1.1719 3.0703 0 4.2422l9.1289 9.1289c0.58594 0.58594 1.3516 0.87891 2.1211 0.87891z"/>
  <path d="m72.691 68.449c-1.1719-1.1719-3.0703-1.1719-4.2422 0s-1.1719 3.0703 0 4.2422l9.1289 9.1289c0.58594 0.58594 1.3555 0.87891 2.1211 0.87891s1.5352-0.29297 2.1211-0.87891c1.1719-1.1719 1.1719-3.0703 0-4.2422z"/>
  <path d="m53 20.906v-12.906c0-1.6562-1.3438-3-3-3s-3 1.3438-3 3v12.906c0 1.6562 1.3438 3 3 3s3-1.3438 3-3z"/>
  <path d="m50 76.094c-1.6562 0-3 1.3438-3 3v12.906c0 1.6562 1.3438 3 3 3s3-1.3438 3-3v-12.906c0-1.6562-1.3438-3-3-3z"/>
  <path d="m23.906 50c0-1.6562-1.3438-3-3-3h-12.906c-1.6562 0-3 1.3438-3 3s1.3438 3 3 3h12.906c1.6562 0 3-1.3438 3-3z"/>
  <path d="m92 47h-12.906c-1.6562 0-3 1.3438-3 3s1.3438 3 3 3h12.906c1.6562 0 3-1.3438 3-3s-1.3438-3-3-3z"/>
 </g>
</svg>