<svg xmlns="http://www.w3.org/2000/svg" xmlns:xlink="http://www.w3.org/1999/xlink" xml:space="preserve" version="1.1" style="shape-rendering:geometricPrecision;text-rendering:geometricPrecision;image-rendering:optimizeQuality;" viewBox="0 0 343 418.75" x="0px" y="0px" fill-rule="evenodd" clip-rule="evenodd"><defs><style type="text/css">
   
    .fil0 {fill:white;fill-rule:nonzero}
   
  </style></defs><g><path class="fil0" d="M10 0l53 12c3,1 5,3 6,6l8 39 259 25c4,0 8,5 6,10l-40 123c-1,3 -4,5 -7,5l-184 0 4 19 177 0c10,0 10,18 0,18l-186 0c-3,0 -6,-2 -7,-6l-46 -223 -47 -10c-10,-3 -6,-20 4,-18z"/><path class="fil0" d="M146 266c19,0 35,15 35,34 0,20 -16,35 -35,35 -19,0 -35,-15 -35,-35 0,-19 16,-34 35,-34zm0 17c-9,0 -17,8 -17,17 0,10 8,17 17,17 9,0 17,-7 17,-17 0,-9 -8,-17 -17,-17z"/><path class="fil0" d="M254 266c20,0 35,15 35,34 0,20 -15,35 -35,35 -19,0 -34,-15 -34,-35 0,-19 15,-34 34,-34zm0 17c-9,0 -16,8 -16,17 0,10 7,17 16,17 10,0 17,-7 17,-17 0,-9 -7,-17 -17,-17z"/></g><text x="0" y="350" fill="#000000" font-size="5px" font-weight="bold" font-family="'Helvetica Neue', Helvetica, Arial-Unicode, Arial, Sans-serif">Created by Saifurrijal</text><text x="0" y="355" fill="#000000" font-size="5px" font-weight="bold" font-family="'Helvetica Neue', Helvetica, Arial-Unicode, Arial, Sans-serif">from the Noun Project</text></svg>